<svg version="1.1" id="Layer_1" xmlns="http://www.w3.org/2000/svg" xmlns:xlink="http://www.w3.org/1999/xlink" x="0px" y="0px"
	 width="100%" viewBox="0 0 1024 1024" enable-background="new 0 0 1024 1024" xml:space="preserve">
<path fill="#000000" opacity="1.000000" stroke="none" 
	d="
M546.000000,643.740723 
	C554.832886,643.734558 563.168335,643.606445 571.497437,643.782043 
	C574.908203,643.853882 576.768188,642.812012 578.379150,639.553284 
	C584.538513,627.093994 594.986694,620.167786 608.752808,620.412537 
	C622.537781,620.657654 633.338013,627.168091 639.124817,640.309509 
	C640.252197,642.869568 641.696960,643.916443 644.387817,643.794006 
	C647.381958,643.657715 650.405579,643.521729 653.381470,643.783020 
	C658.127197,644.199585 659.286011,641.847656 658.540894,637.757263 
	C656.546936,626.811646 650.727783,619.141235 639.672729,616.155640 
	C623.916382,611.900452 607.961731,608.584900 591.751892,606.610474 
	C579.703552,605.142883 568.955200,600.372192 559.181274,593.481567 
	C542.308777,581.586426 524.030579,574.934265 503.056335,576.171631 
	C492.759613,576.779114 482.395172,576.380432 472.065216,576.207397 
	C468.386658,576.145752 467.008484,577.418457 467.146118,581.131958 
	C467.596497,593.281250 467.866028,605.437805 468.115387,617.593384 
	C468.150452,619.303650 468.840729,621.231384 467.267212,622.794800 
	C465.131714,622.290527 465.270813,620.294983 464.661896,618.905334 
	C460.869385,610.250000 455.994965,602.362488 448.577057,596.325378 
	C446.306824,594.477722 445.523285,592.398315 445.465607,589.448730 
	C445.130341,572.300293 444.765106,555.146912 443.997375,538.013794 
	C443.179901,519.770447 437.941742,502.623688 429.565735,486.481689 
	C427.559692,482.615784 427.769470,479.749695 430.512787,476.553253 
	C433.942474,472.557159 437.113953,468.339386 440.941559,463.533386 
	C448.482452,473.448944 452.515839,484.314331 457.596680,495.959503 
	C476.255676,468.483948 502.000183,454.918732 534.028625,455.447205 
	C566.069153,455.975861 591.491882,470.346527 610.147461,497.650604 
	C613.622253,490.069427 616.820068,483.012146 621.014832,476.458038 
	C631.343628,460.320068 644.422791,446.957397 660.835693,437.113739 
	C692.977112,417.836853 725.281128,398.830841 757.522644,379.720886 
	C763.014648,376.465698 763.198975,376.346802 759.213867,371.329498 
	C748.851929,358.283600 738.312378,345.378845 727.874695,332.392792 
	C726.664062,330.886597 724.904724,329.672974 724.747437,326.442200 
	C780.207520,330.238647 835.489319,334.022888 891.930725,337.886536 
	C882.015869,389.300415 872.228027,440.055634 862.477539,490.617340 
	C859.657959,490.921997 858.810181,489.274536 857.772705,488.082642 
	C846.835327,475.517822 835.782043,463.048004 825.125427,450.248352 
	C821.999207,446.493378 819.730713,446.245941 815.621582,448.701355 
	C789.313049,464.422180 762.865723,479.911530 736.393311,495.355896 
	C733.444885,497.076050 731.951416,499.014465 732.291077,502.505310 
	C732.869873,508.453644 733.207642,514.425415 733.718140,521.358582 
	C756.789001,508.157959 779.472046,495.179230 802.854187,481.800507 
	C803.287781,487.517365 803.778381,492.255585 803.985291,497.006165 
	C805.014526,520.629700 805.901489,544.259644 807.011597,567.879211 
	C807.213196,572.169006 804.853027,574.104126 801.664612,575.987488 
	C781.727966,587.763794 761.884216,599.698303 741.897705,611.388794 
	C738.271423,613.509888 736.920044,615.949951 737.098572,620.185608 
	C737.933105,639.984070 738.316406,659.801758 739.164246,679.599487 
	C739.375671,684.537048 737.558594,686.192993 732.906494,685.968933 
	C729.251831,685.792969 725.567627,685.899414 721.913452,686.138550 
	C718.239746,686.378967 716.915466,684.867004 716.854065,681.222351 
	C716.578857,664.900024 716.137146,648.580139 715.698303,632.260925 
	C715.474548,623.936035 715.281189,615.605225 714.773376,607.295410 
	C714.535461,603.401550 716.086365,601.360718 719.396912,599.445312 
	C740.160095,587.432495 760.777527,575.167664 781.466553,563.026001 
	C783.489502,561.838745 784.775146,560.450745 784.745544,557.916687 
	C784.599487,545.421326 783.784607,532.962463 782.838745,520.509827 
	C782.805664,520.074402 782.431091,519.664856 781.799622,518.429199 
	C758.977844,531.487183 736.268799,544.480591 712.279602,558.206482 
	C711.679016,541.921814 711.888977,527.038391 710.452576,511.362885 
	C703.446533,515.977905 698.803772,521.721008 695.370422,528.583557 
	C689.874634,539.568726 691.267334,551.305542 691.593201,562.926697 
	C692.130066,582.071899 692.677734,601.216919 693.191223,620.362793 
	C693.207153,620.956970 692.895203,621.559937 692.732544,622.172058 
	C690.320129,622.120911 690.576782,620.146362 690.110291,618.938477 
	C686.617798,609.895508 681.486328,602.034668 673.742554,596.072266 
	C671.733154,594.525146 670.732300,592.783813 670.678223,590.187439 
	C670.390320,576.363464 669.698792,562.543335 669.650024,548.720032 
	C669.559570,523.121521 680.467896,503.327515 702.518860,490.287842 
	C741.810181,467.053314 781.048218,443.722900 820.791382,421.257477 
	C824.466614,419.179962 826.622253,419.023438 829.492798,422.553680 
	C835.545776,429.997528 842.127625,437.011261 849.565979,445.414246 
	C855.317383,415.371033 860.795898,386.752930 866.408264,357.436096 
	C834.688782,354.805023 803.475037,352.705750 772.233704,351.034576 
	C772.064636,351.470886 771.895569,351.907196 771.726440,352.343506 
	C779.494690,362.002533 787.262878,371.661560 794.896912,381.153748 
	C793.763794,384.147278 791.325256,384.765625 789.394836,385.906006 
	C750.100342,409.119293 710.326904,431.562836 671.615662,455.709625 
	C641.096375,474.746521 625.329895,503.811310 622.744263,539.614990 
	C621.991638,550.037415 622.975708,560.596924 623.376343,571.085388 
	C623.538452,575.328918 622.277222,577.052795 617.892639,575.675598 
	C616.003418,575.082275 613.967957,574.961060 612.003479,574.600281 
	C600.447693,572.477783 602.190491,574.586304 601.759460,562.728271 
	C601.360840,551.760315 601.757935,540.724060 599.679321,529.871277 
	C594.092712,500.703156 565.909363,477.022034 536.139404,476.218750 
	C509.120789,475.489685 488.328339,486.230804 474.590576,509.666718 
	C466.812897,522.934998 465.280518,537.593689 466.308044,552.665710 
	C466.533539,555.973267 468.893494,555.631104 471.023224,555.596436 
	C480.850616,555.436096 490.687622,555.439941 500.501678,554.973999 
	C526.986145,553.716309 550.932007,560.655640 572.092529,576.732422 
	C583.398438,585.322144 596.842102,586.782898 610.223450,588.618591 
	C622.448669,590.295776 634.447388,593.164429 646.344666,596.320312 
	C666.695679,601.718872 679.131958,617.721375 680.175354,639.454468 
	C680.502686,646.272705 680.150757,653.121399 680.356567,659.948669 
	C680.466309,663.589966 678.783020,664.458252 675.517700,664.421143 
	C665.519775,664.307312 655.518005,664.498169 645.520813,664.354614 
	C642.179199,664.306580 640.172485,665.095337 638.573364,668.452698 
	C632.685303,680.813843 622.111694,686.802612 608.895874,687.001221 
	C596.015503,687.194885 585.635864,681.288879 579.320007,669.821411 
	C577.159241,665.898193 574.839966,664.345337 570.489197,664.362244 
	C538.491577,664.486633 506.492584,664.330505 474.496216,664.565796 
	C469.964966,664.599060 468.445160,663.312378 468.791870,658.980042 
	C469.030396,655.999268 469.064880,652.962830 468.787079,649.989014 
	C468.341980,645.224548 470.171234,643.612427 475.011963,643.653687 
	C498.506531,643.853821 522.003723,643.742188 546.000000,643.740723 
M615.306458,664.035522 
	C620.438660,660.419495 621.854980,655.456421 620.231995,649.610718 
	C618.967773,645.057495 614.288452,641.584839 609.509949,641.267517 
	C604.473450,640.933044 599.727051,643.732727 597.407288,648.406311 
	C595.261536,652.729126 596.166565,658.704712 599.513184,662.310913 
	C603.096497,666.172119 608.471619,666.932983 615.306458,664.035522 
z"/>
<path fill="#000000" opacity="1.000000" stroke="none" 
	d="
M491.250061,415.284302 
	C464.389343,424.709351 441.196198,438.829407 424.104279,461.635651 
	C406.527283,485.089233 396.923706,511.409119 396.206024,540.846191 
	C395.970032,550.524109 396.914520,560.149841 397.200195,569.803162 
	C397.257477,571.738220 397.781372,573.817749 396.002899,576.041870 
	C390.234283,575.135681 384.193237,574.190308 378.153564,573.236450 
	C375.312958,572.787842 375.807220,570.537231 375.583832,568.591675 
	C374.347321,557.823425 375.466339,546.949829 373.936096,536.182251 
	C368.913940,500.844330 338.734863,475.109955 302.981201,476.081726 
	C266.642609,477.069397 232.150452,504.661316 235.352676,551.436890 
	C235.610199,555.198547 237.382141,555.738770 240.480179,555.669556 
	C253.469894,555.379272 266.465698,555.333191 279.453033,554.972412 
	C300.442688,554.389465 320.089050,559.599304 337.070129,571.535156 
	C351.675476,581.801147 367.385101,586.867676 384.745636,588.778687 
	C396.656097,590.089783 408.339417,592.986816 419.937897,596.000916 
	C439.865662,601.179626 453.175598,617.653320 454.167877,638.373474 
	C454.518250,645.689758 454.176239,653.036743 454.357910,660.364563 
	C454.449463,664.057922 452.675415,664.764404 449.416992,664.711426 
	C439.260193,664.545959 429.096008,664.779297 418.941620,664.550659 
	C415.441223,664.471802 413.754272,665.681152 412.141876,668.820984 
	C401.290405,689.951416 372.890137,693.513489 356.982452,675.873779 
	C355.544159,674.278870 353.880310,672.559204 353.276642,670.602661 
	C351.623352,665.244507 347.914703,664.339417 342.962158,664.367676 
	C313.136566,664.538147 283.309814,664.554688 253.483627,664.515991 
	C249.418732,664.510681 246.884308,665.735291 244.820786,669.613342 
	C238.533463,681.429504 228.012466,687.258667 214.933594,687.029480 
	C201.878845,686.800659 191.594269,680.707214 185.617981,668.665955 
	C184.074310,665.555603 182.224518,664.070618 178.707733,664.304199 
	C174.211853,664.602783 169.731598,664.143372 165.296432,663.267700 
	C152.851242,660.810364 143.977203,650.661438 143.781754,637.945923 
	C143.548737,622.785767 143.781326,607.618958 143.662766,592.456177 
	C143.635666,588.991577 144.995087,587.653076 148.374298,587.720520 
	C165.843155,588.069031 181.336868,582.367676 195.567963,572.499634 
	C200.343323,569.188416 205.501556,566.386230 210.661194,563.688843 
	C213.625763,562.138977 214.455048,560.274597 214.236618,556.940063 
	C212.930801,537.006409 215.141678,517.659241 225.282867,499.946320 
	C239.299133,475.465027 260.851562,461.413086 288.225464,456.858307 
	C325.327881,450.684753 355.658234,463.053253 378.987244,492.564789 
	C379.783051,493.571533 380.333740,494.900238 382.031616,495.053314 
	C383.982269,492.752472 384.686920,489.809204 385.757324,487.064606 
	C402.411957,444.359985 432.560516,414.747467 475.157440,399.012360 
	C535.125122,376.860565 589.634644,389.046387 638.785034,428.744263 
	C641.738525,431.129791 642.083069,432.828766 638.875488,435.248383 
	C636.095520,437.345459 633.282776,439.623169 631.197449,442.363556 
	C628.156616,446.359528 625.839539,445.661682 622.394897,442.797852 
	C599.750122,423.971222 573.571655,413.013123 544.437378,409.671387 
	C526.568481,407.621796 508.882721,409.958893 491.250061,415.284302 
M365.615723,624.935242 
	C382.330353,615.182983 402.723053,621.791321 410.259521,635.822754 
	C414.244598,643.242249 419.004852,644.596924 426.014313,643.769470 
	C426.672302,643.691711 427.353180,643.683533 428.011566,643.754089 
	C431.782898,644.158508 433.029388,642.475037 432.697327,638.780762 
	C431.761810,628.372742 424.771545,619.127991 414.746674,616.344055 
	C402.406433,612.917236 389.921173,609.766785 377.189453,608.424316 
	C359.795135,606.590149 343.688080,601.931335 329.211609,591.712158 
	C320.354736,585.460022 310.595337,580.800842 299.936401,578.049255 
	C289.223328,575.283752 278.395935,576.490723 267.612549,576.321228 
	C258.124268,576.172058 248.580063,575.959167 239.147446,576.776855 
	C226.517624,577.871460 215.854080,584.272278 205.473221,591.087524 
	C194.245255,598.458923 182.328918,604.289551 168.893341,606.414978 
	C166.026718,606.868469 165.042953,608.482605 165.076599,611.251770 
	C165.175812,619.415527 165.218857,627.581665 165.137466,635.745361 
	C165.090027,640.501587 167.759430,642.714539 171.973526,643.527710 
	C179.413666,644.963257 182.803146,643.906311 184.922272,639.886292 
	C191.457794,627.488403 201.513718,620.452087 215.770996,620.684753 
	C229.677307,620.911682 239.838562,627.646973 246.048523,640.011230 
	C247.482147,642.865601 249.132263,643.799377 252.173203,643.790710 
	C283.334045,643.701965 314.495239,643.703796 345.656219,643.761963 
	C348.456207,643.767151 350.192810,643.056458 351.471954,640.288757 
	C354.395996,633.962036 358.833649,628.822327 365.615723,624.935242 
M227.647751,653.570923 
	C227.312820,652.129028 227.159760,650.613464 226.611252,649.257996 
	C224.313812,643.580505 218.044128,640.214478 212.565536,641.594910 
	C206.617310,643.093689 202.911423,648.230225 203.235138,654.527344 
	C203.568741,661.016785 208.148254,665.577576 214.710022,665.955444 
	C221.626556,666.353699 226.133224,662.312439 227.647751,653.570923 
M392.926208,647.718201 
	C390.866699,643.941589 387.706146,641.740417 383.424438,641.339233 
	C377.941559,640.825562 372.701904,644.130066 370.779694,649.174133 
	C368.868988,654.188049 370.603882,660.615356 374.677063,663.612793 
	C379.046967,666.828613 385.150818,666.778809 389.572815,663.491272 
	C394.193817,660.055786 395.531555,654.607056 392.926208,647.718201 
z"/>
<path fill="#000000" opacity="1.000000" stroke="none" 
	d="
M330.265381,390.589050 
	C358.078857,394.951172 382.535370,405.998566 404.672516,422.522156 
	C407.778229,424.840302 407.840393,426.673004 405.330353,429.336914 
	C402.706848,432.121307 400.128723,434.993286 397.901184,438.093170 
	C395.723083,441.124146 393.863525,441.166565 390.953644,438.962585 
	C373.156281,425.482544 353.337738,416.009674 331.394409,412.037476 
	C280.681671,402.857422 236.451385,416.225037 200.775681,453.560150 
	C176.454453,479.012573 164.692154,510.233154 165.118866,545.728577 
	C165.206970,553.057251 165.018188,560.390198 165.174744,567.716614 
	C165.246658,571.082520 163.840942,572.670410 160.597519,572.852112 
	C155.943985,573.112793 151.289062,573.351196 146.637421,573.641968 
	C144.350769,573.784851 143.841003,572.419189 143.730118,570.529785 
	C140.766357,520.028870 150.554642,473.582642 187.568604,436.256317 
	C211.975769,411.643158 241.695465,396.838104 275.774658,390.683380 
	C293.792786,387.429260 311.802490,386.793396 330.265381,390.589050 
z"/>
</svg>